<svg xmlns="http://www.w3.org/2000/svg" width="375" viewBox="0 0 375 375" height="375" version="1.0"><defs><clipPath id="a"><path d="M 263.917969 164.121094 L 303.667969 164.121094 L 303.667969 194 L 263.917969 194 Z M 263.917969 164.121094"/></clipPath><clipPath id="b"><path d="M 272 196 L 296 196 L 296 203.871094 L 272 203.871094 Z M 272 196"/></clipPath><clipPath id="c"><path d="M 263.917969 186 L 303.667969 186 L 303.667969 190 L 263.917969 190 Z M 263.917969 186"/></clipPath></defs><g clip-path="url(#a)"><path fill="#E6E6FF" d="M 302.25 193.933594 L 265.339844 193.933594 C 265.152344 193.933594 264.96875 193.898438 264.796875 193.824219 C 264.621094 193.753906 264.46875 193.652344 264.335938 193.519531 C 264.203125 193.386719 264.101562 193.230469 264.027344 193.058594 C 263.957031 192.882812 263.917969 192.703125 263.917969 192.515625 L 263.917969 165.542969 C 263.917969 165.351562 263.957031 165.171875 264.027344 164.996094 C 264.101562 164.824219 264.203125 164.671875 264.335938 164.539062 C 264.46875 164.40625 264.621094 164.300781 264.796875 164.230469 C 264.96875 164.15625 265.152344 164.121094 265.339844 164.121094 L 302.25 164.121094 C 302.4375 164.121094 302.621094 164.15625 302.792969 164.230469 C 302.96875 164.300781 303.121094 164.40625 303.253906 164.539062 C 303.386719 164.671875 303.488281 164.824219 303.5625 164.996094 C 303.632812 165.171875 303.667969 165.351562 303.667969 165.542969 L 303.667969 192.515625 C 303.667969 192.703125 303.632812 192.882812 303.5625 193.058594 C 303.488281 193.230469 303.386719 193.386719 303.253906 193.519531 C 303.121094 193.652344 302.96875 193.753906 302.792969 193.824219 C 302.621094 193.898438 302.4375 193.933594 302.25 193.933594 Z M 266.757812 191.09375 L 300.832031 191.09375 L 300.832031 166.960938 L 266.757812 166.960938 Z M 266.757812 191.09375"/></g><path fill="#E6E6FF" d="M 286.632812 199.613281 L 280.957031 199.613281 C 280.765625 199.613281 280.585938 199.578125 280.414062 199.503906 C 280.238281 199.433594 280.085938 199.328125 279.953125 199.195312 C 279.820312 199.0625 279.714844 198.910156 279.644531 198.738281 C 279.570312 198.5625 279.535156 198.382812 279.535156 198.191406 L 279.535156 192.515625 C 279.535156 192.328125 279.570312 192.144531 279.644531 191.972656 C 279.714844 191.796875 279.820312 191.644531 279.953125 191.511719 C 280.085938 191.378906 280.238281 191.273438 280.414062 191.203125 C 280.585938 191.132812 280.765625 191.09375 280.957031 191.09375 L 286.632812 191.09375 C 286.820312 191.09375 287.003906 191.132812 287.175781 191.203125 C 287.351562 191.273438 287.503906 191.378906 287.636719 191.511719 C 287.769531 191.644531 287.875 191.796875 287.945312 191.972656 C 288.019531 192.144531 288.054688 192.328125 288.054688 192.515625 L 288.054688 198.191406 C 288.054688 198.382812 288.019531 198.5625 287.945312 198.738281 C 287.875 198.910156 287.769531 199.0625 287.636719 199.195312 C 287.503906 199.328125 287.351562 199.433594 287.175781 199.503906 C 287.003906 199.578125 286.820312 199.613281 286.632812 199.613281 Z M 282.375 196.773438 L 285.214844 196.773438 L 285.214844 193.933594 L 282.375 193.933594 Z M 282.375 196.773438"/><g clip-path="url(#b)"><path fill="#E6E6FF" d="M 293.730469 203.871094 L 273.855469 203.871094 C 273.667969 203.871094 273.488281 203.835938 273.3125 203.761719 C 273.140625 203.691406 272.988281 203.589844 272.851562 203.457031 C 272.71875 203.324219 272.617188 203.167969 272.546875 202.996094 C 272.472656 202.820312 272.4375 202.640625 272.4375 202.453125 C 272.4375 202.078125 272.472656 201.710938 272.546875 201.34375 C 272.621094 200.976562 272.726562 200.625 272.871094 200.277344 C 273.011719 199.933594 273.1875 199.605469 273.394531 199.296875 C 273.601562 198.988281 273.835938 198.699219 274.101562 198.4375 C 274.363281 198.171875 274.652344 197.9375 274.960938 197.730469 C 275.269531 197.523438 275.597656 197.347656 275.941406 197.207031 C 276.289062 197.0625 276.644531 196.957031 277.007812 196.882812 C 277.375 196.808594 277.742188 196.773438 278.117188 196.773438 L 289.472656 196.773438 C 289.847656 196.773438 290.214844 196.808594 290.582031 196.882812 C 290.945312 196.957031 291.300781 197.0625 291.644531 197.207031 C 291.992188 197.347656 292.316406 197.523438 292.628906 197.730469 C 292.9375 197.9375 293.226562 198.171875 293.488281 198.4375 C 293.753906 198.699219 293.988281 198.988281 294.195312 199.296875 C 294.402344 199.605469 294.578125 199.933594 294.71875 200.277344 C 294.863281 200.625 294.96875 200.976562 295.042969 201.34375 C 295.117188 201.710938 295.152344 202.078125 295.152344 202.453125 C 295.152344 202.640625 295.117188 202.820312 295.042969 202.996094 C 294.972656 203.167969 294.871094 203.324219 294.734375 203.457031 C 294.601562 203.589844 294.449219 203.691406 294.277344 203.761719 C 294.101562 203.835938 293.921875 203.871094 293.730469 203.871094 Z M 275.660156 201.03125 L 291.929688 201.03125 C 291.675781 200.59375 291.332031 200.246094 290.890625 199.992188 C 290.453125 199.738281 289.980469 199.613281 289.472656 199.613281 L 278.117188 199.613281 C 277.609375 199.613281 277.136719 199.738281 276.699219 199.992188 C 276.257812 200.246094 275.914062 200.59375 275.660156 201.03125 Z M 275.660156 201.03125"/></g><path fill="#E6E6FF" d="M 278.117188 181.15625 C 277.722656 181.15625 277.390625 181.019531 277.113281 180.742188 L 274.273438 177.902344 C 274.140625 177.769531 274.039062 177.617188 273.964844 177.441406 C 273.894531 177.269531 273.859375 177.085938 273.859375 176.898438 C 273.859375 176.710938 273.894531 176.527344 273.964844 176.355469 C 274.039062 176.179688 274.140625 176.027344 274.273438 175.894531 L 277.113281 173.054688 C 277.246094 172.925781 277.398438 172.828125 277.574219 172.757812 C 277.746094 172.6875 277.925781 172.65625 278.109375 172.65625 C 278.296875 172.660156 278.476562 172.695312 278.648438 172.765625 C 278.820312 172.839844 278.972656 172.941406 279.101562 173.074219 C 279.234375 173.203125 279.335938 173.355469 279.40625 173.527344 C 279.480469 173.699219 279.515625 173.878906 279.519531 174.0625 C 279.519531 174.25 279.484375 174.429688 279.417969 174.601562 C 279.347656 174.777344 279.25 174.929688 279.121094 175.0625 L 277.285156 176.898438 L 279.121094 178.734375 C 279.324219 178.9375 279.453125 179.179688 279.507812 179.460938 C 279.5625 179.742188 279.539062 180.015625 279.425781 180.28125 C 279.316406 180.546875 279.144531 180.757812 278.90625 180.917969 C 278.664062 181.078125 278.402344 181.15625 278.117188 181.15625 Z M 278.117188 181.15625"/><path fill="#E6E6FF" d="M 289.472656 181.15625 C 289.1875 181.15625 288.921875 181.078125 288.683594 180.917969 C 288.445312 180.757812 288.273438 180.546875 288.160156 180.28125 C 288.050781 180.015625 288.023438 179.742188 288.082031 179.460938 C 288.136719 179.179688 288.265625 178.9375 288.46875 178.734375 L 290.304688 176.898438 L 288.46875 175.0625 C 288.339844 174.929688 288.242188 174.777344 288.171875 174.601562 C 288.101562 174.429688 288.070312 174.25 288.070312 174.0625 C 288.074219 173.878906 288.109375 173.699219 288.179688 173.527344 C 288.253906 173.355469 288.355469 173.203125 288.488281 173.074219 C 288.617188 172.941406 288.769531 172.839844 288.941406 172.765625 C 289.113281 172.695312 289.292969 172.660156 289.476562 172.65625 C 289.664062 172.65625 289.84375 172.6875 290.015625 172.757812 C 290.191406 172.828125 290.34375 172.925781 290.476562 173.054688 L 293.316406 175.894531 C 293.449219 176.027344 293.550781 176.179688 293.625 176.355469 C 293.695312 176.527344 293.730469 176.710938 293.730469 176.898438 C 293.730469 177.085938 293.695312 177.269531 293.625 177.441406 C 293.550781 177.617188 293.449219 177.769531 293.316406 177.902344 L 290.476562 180.742188 C 290.199219 181.019531 289.863281 181.15625 289.472656 181.15625 Z M 289.472656 181.15625"/><path fill="#E6E6FF" d="M 282.375 181.15625 C 282.253906 181.15625 282.136719 181.140625 282.019531 181.113281 C 281.902344 181.082031 281.789062 181.035156 281.683594 180.976562 C 281.578125 180.917969 281.480469 180.847656 281.394531 180.761719 C 281.308594 180.679688 281.230469 180.585938 281.167969 180.484375 C 281.105469 180.382812 281.054688 180.273438 281.019531 180.15625 C 280.984375 180.039062 280.964844 179.921875 280.957031 179.800781 C 280.953125 179.679688 280.960938 179.5625 280.988281 179.441406 C 281.011719 179.324219 281.050781 179.210938 281.105469 179.101562 L 283.945312 173.425781 C 284.03125 173.257812 284.140625 173.109375 284.285156 172.988281 C 284.425781 172.863281 284.585938 172.773438 284.765625 172.710938 C 284.945312 172.652344 285.128906 172.628906 285.316406 172.640625 C 285.503906 172.65625 285.683594 172.703125 285.851562 172.789062 C 286.019531 172.871094 286.164062 172.984375 286.289062 173.128906 C 286.410156 173.269531 286.503906 173.429688 286.5625 173.609375 C 286.621094 173.789062 286.644531 173.972656 286.632812 174.160156 C 286.621094 174.347656 286.570312 174.523438 286.488281 174.695312 L 283.648438 180.371094 C 283.527344 180.613281 283.351562 180.804688 283.121094 180.945312 C 282.894531 181.085938 282.644531 181.15625 282.375 181.15625 Z M 282.375 181.15625"/><g clip-path="url(#c)"><path fill="#E6E6FF" d="M 302.25 189.675781 L 265.339844 189.675781 C 265.152344 189.675781 264.96875 189.640625 264.796875 189.566406 C 264.621094 189.496094 264.46875 189.390625 264.335938 189.257812 C 264.203125 189.125 264.101562 188.972656 264.027344 188.800781 C 263.957031 188.625 263.917969 188.445312 263.917969 188.253906 C 263.917969 188.066406 263.957031 187.886719 264.027344 187.710938 C 264.101562 187.539062 264.203125 187.386719 264.335938 187.25 C 264.46875 187.117188 264.621094 187.015625 264.796875 186.945312 C 264.96875 186.871094 265.152344 186.835938 265.339844 186.835938 L 302.25 186.835938 C 302.4375 186.835938 302.621094 186.871094 302.792969 186.945312 C 302.96875 187.015625 303.121094 187.117188 303.253906 187.25 C 303.386719 187.386719 303.488281 187.539062 303.5625 187.710938 C 303.632812 187.886719 303.667969 188.066406 303.667969 188.253906 C 303.667969 188.445312 303.632812 188.625 303.5625 188.800781 C 303.488281 188.972656 303.386719 189.125 303.253906 189.257812 C 303.121094 189.390625 302.96875 189.496094 302.792969 189.566406 C 302.621094 189.640625 302.4375 189.675781 302.25 189.675781 Z M 302.25 189.675781"/></g><g fill="#E6E6FF"><g><g><path d="M 7.765625 0.265625 C 5.722656 0.265625 4.085938 -0.375 2.859375 -1.65625 C 1.628906 -2.945312 1.015625 -4.710938 1.015625 -6.953125 L 1.015625 -19.859375 C 1.015625 -22.640625 1.566406 -24.734375 2.671875 -26.140625 C 3.785156 -27.554688 5.523438 -28.265625 7.890625 -28.265625 C 9.953125 -28.265625 11.613281 -27.695312 12.875 -26.5625 C 14.132812 -25.4375 14.765625 -23.8125 14.765625 -21.6875 L 14.765625 -16.859375 L 9.203125 -16.859375 L 9.203125 -21 C 9.203125 -21.800781 9.101562 -22.351562 8.90625 -22.65625 C 8.707031 -22.96875 8.367188 -23.125 7.890625 -23.125 C 7.390625 -23.125 7.046875 -22.945312 6.859375 -22.59375 C 6.679688 -22.25 6.59375 -21.738281 6.59375 -21.0625 L 6.59375 -7.015625 C 6.59375 -6.273438 6.695312 -5.734375 6.90625 -5.390625 C 7.125 -5.054688 7.453125 -4.890625 7.890625 -4.890625 C 8.765625 -4.890625 9.203125 -5.597656 9.203125 -7.015625 L 9.203125 -12.0625 L 14.84375 -12.0625 L 14.84375 -6.78125 C 14.84375 -2.082031 12.484375 0.265625 7.765625 0.265625 Z M 7.765625 0.265625" transform="translate(42.257 192.756)"/></g></g></g><g fill="#E6E6FF"><g><g><path d="M 8.09375 0.265625 C 3.332031 0.265625 0.953125 -2.203125 0.953125 -7.140625 L 0.953125 -16.734375 C 0.953125 -18.992188 1.585938 -20.789062 2.859375 -22.125 C 4.128906 -23.457031 5.875 -24.125 8.09375 -24.125 C 10.300781 -24.125 12.039062 -23.457031 13.3125 -22.125 C 14.59375 -20.789062 15.234375 -18.992188 15.234375 -16.734375 L 15.234375 -7.140625 C 15.234375 -2.203125 12.851562 0.265625 8.09375 0.265625 Z M 8.09375 -4.140625 C 8.539062 -4.140625 8.875 -4.300781 9.09375 -4.625 C 9.3125 -4.957031 9.421875 -5.40625 9.421875 -5.96875 L 9.421875 -17.640625 C 9.421875 -19.035156 8.976562 -19.734375 8.09375 -19.734375 C 7.195312 -19.734375 6.75 -19.035156 6.75 -17.640625 L 6.75 -5.96875 C 6.75 -5.40625 6.859375 -4.957031 7.078125 -4.625 C 7.296875 -4.300781 7.632812 -4.140625 8.09375 -4.140625 Z M 8.09375 -4.140625" transform="translate(57.715 192.756)"/></g></g></g><g fill="#E6E6FF"><g><g><path d="M 5.84375 0.265625 C 4.445312 0.265625 3.394531 -0.0664062 2.6875 -0.734375 C 1.976562 -1.398438 1.507812 -2.28125 1.28125 -3.375 C 1.0625 -4.46875 0.953125 -5.875 0.953125 -7.59375 L 1.015625 -18.359375 C 1.015625 -20.054688 1.441406 -21.441406 2.296875 -22.515625 C 3.160156 -23.585938 4.375 -24.125 5.9375 -24.125 C 7.476562 -24.125 8.628906 -23.613281 9.390625 -22.59375 L 9.390625 -28.171875 L 15.09375 -28.171875 L 15.09375 0 L 9.390625 0 L 9.390625 -2.546875 C 9.066406 -1.609375 8.625 -0.90625 8.0625 -0.4375 C 7.507812 0.03125 6.769531 0.265625 5.84375 0.265625 Z M 8.015625 -4.203125 C 8.585938 -4.203125 8.957031 -4.476562 9.125 -5.03125 C 9.300781 -5.59375 9.390625 -6.335938 9.390625 -7.265625 L 9.390625 -17.25 C 9.390625 -17.945312 9.289062 -18.535156 9.09375 -19.015625 C 8.894531 -19.492188 8.546875 -19.734375 8.046875 -19.734375 C 7.484375 -19.734375 7.109375 -19.507812 6.921875 -19.0625 C 6.742188 -18.613281 6.65625 -18.007812 6.65625 -17.25 L 6.65625 -7.203125 C 6.65625 -5.203125 7.109375 -4.203125 8.015625 -4.203125 Z M 8.015625 -4.203125" transform="translate(73.924 192.756)"/></g></g></g><g fill="#E6E6FF"><g><g><path d="M 1.109375 -25.46875 L 1.109375 -29.453125 L 6.8125 -29.453125 L 6.8125 -25.46875 Z M 1.109375 0 L 1.109375 -23.875 L 6.8125 -23.875 L 6.8125 0 Z M 1.109375 0" transform="translate(90.165 192.756)"/></g></g></g><g fill="#E6E6FF"><g><g><path d="M 1.140625 -23.875 L 6.84375 -23.875 L 6.84375 -20.84375 C 7.082031 -21.820312 7.492188 -22.613281 8.078125 -23.21875 C 8.671875 -23.820312 9.457031 -24.125 10.4375 -24.125 C 12.039062 -24.125 13.226562 -23.628906 14 -22.640625 C 14.769531 -21.648438 15.15625 -20.242188 15.15625 -18.421875 L 15.15625 0 L 9.546875 0 L 9.546875 -17.84375 C 9.546875 -18.363281 9.441406 -18.804688 9.234375 -19.171875 C 9.035156 -19.546875 8.71875 -19.734375 8.28125 -19.734375 C 7.695312 -19.734375 7.3125 -19.460938 7.125 -18.921875 C 6.9375 -18.390625 6.84375 -17.679688 6.84375 -16.796875 L 6.84375 0 L 1.140625 0 Z M 1.140625 -23.875" transform="translate(98.09 192.756)"/></g></g></g><g fill="#E6E6FF"><g><g><path d="M 7.5625 3.484375 C 5.863281 3.484375 4.53125 3.347656 3.5625 3.078125 C 2.601562 2.804688 1.65625 2.289062 0.71875 1.53125 L 2.671875 -1.765625 C 4.066406 -0.929688 5.445312 -0.515625 6.8125 -0.515625 C 7.707031 -0.515625 8.378906 -0.796875 8.828125 -1.359375 C 9.285156 -1.929688 9.515625 -2.707031 9.515625 -3.6875 L 9.515625 -4.984375 C 9.066406 -3.359375 7.863281 -2.546875 5.90625 -2.546875 C 4.269531 -2.546875 3.066406 -3.097656 2.296875 -4.203125 C 1.523438 -5.316406 1.140625 -6.796875 1.140625 -8.640625 L 1.140625 -17.609375 C 1.140625 -19.710938 1.492188 -21.320312 2.203125 -22.4375 C 2.910156 -23.5625 4.144531 -24.125 5.90625 -24.125 C 6.925781 -24.125 7.734375 -23.867188 8.328125 -23.359375 C 8.929688 -22.847656 9.328125 -22.128906 9.515625 -21.203125 L 9.515625 -23.875 L 15.359375 -23.875 L 15.359375 -4.046875 C 15.359375 -1.367188 14.738281 0.550781 13.5 1.71875 C 12.257812 2.894531 10.28125 3.484375 7.5625 3.484375 Z M 8.1875 -6.84375 C 9.070312 -6.84375 9.515625 -7.648438 9.515625 -9.265625 L 9.515625 -17.765625 C 9.515625 -18.242188 9.382812 -18.703125 9.125 -19.140625 C 8.863281 -19.578125 8.539062 -19.796875 8.15625 -19.796875 C 7.65625 -19.796875 7.316406 -19.613281 7.140625 -19.25 C 6.960938 -18.894531 6.875 -18.398438 6.875 -17.765625 L 6.875 -9.265625 C 6.875 -8.546875 6.960938 -7.960938 7.140625 -7.515625 C 7.316406 -7.066406 7.664062 -6.84375 8.1875 -6.84375 Z M 8.1875 -6.84375" transform="translate(114.363 192.756)"/></g></g></g><g fill="#E6E6FF"><g><g><path d="M 7.890625 0.265625 C 5.347656 0.265625 3.507812 -0.363281 2.375 -1.625 C 1.25 -2.882812 0.6875 -4.921875 0.6875 -7.734375 L 0.6875 -10.46875 L 6.203125 -10.46875 L 6.203125 -6.984375 C 6.203125 -5.585938 6.644531 -4.890625 7.53125 -4.890625 C 8.03125 -4.890625 8.378906 -5.035156 8.578125 -5.328125 C 8.773438 -5.617188 8.875 -6.113281 8.875 -6.8125 C 8.875 -7.726562 8.765625 -8.484375 8.546875 -9.078125 C 8.328125 -9.679688 8.046875 -10.179688 7.703125 -10.578125 C 7.367188 -10.984375 6.769531 -11.609375 5.90625 -12.453125 L 3.484375 -14.875 C 1.617188 -16.695312 0.6875 -18.71875 0.6875 -20.9375 C 0.6875 -23.320312 1.234375 -25.140625 2.328125 -26.390625 C 3.429688 -27.640625 5.035156 -28.265625 7.140625 -28.265625 C 9.660156 -28.265625 11.472656 -27.597656 12.578125 -26.265625 C 13.691406 -24.929688 14.25 -22.835938 14.25 -19.984375 L 8.546875 -19.984375 L 8.515625 -21.90625 C 8.515625 -22.28125 8.410156 -22.578125 8.203125 -22.796875 C 7.992188 -23.015625 7.707031 -23.125 7.34375 -23.125 C 6.90625 -23.125 6.578125 -23.003906 6.359375 -22.765625 C 6.140625 -22.523438 6.03125 -22.195312 6.03125 -21.78125 C 6.03125 -20.863281 6.550781 -19.921875 7.59375 -18.953125 L 10.859375 -15.8125 C 11.617188 -15.070312 12.25 -14.367188 12.75 -13.703125 C 13.25 -13.046875 13.648438 -12.265625 13.953125 -11.359375 C 14.253906 -10.460938 14.40625 -9.394531 14.40625 -8.15625 C 14.40625 -5.394531 13.898438 -3.300781 12.890625 -1.875 C 11.878906 -0.445312 10.210938 0.265625 7.890625 0.265625 Z M 7.890625 0.265625" transform="translate(138.431 192.756)"/></g></g></g><g fill="#E6E6FF"><g><g><path d="M 8.09375 0.265625 C 3.332031 0.265625 0.953125 -2.203125 0.953125 -7.140625 L 0.953125 -16.734375 C 0.953125 -18.992188 1.585938 -20.789062 2.859375 -22.125 C 4.128906 -23.457031 5.875 -24.125 8.09375 -24.125 C 10.300781 -24.125 12.039062 -23.457031 13.3125 -22.125 C 14.59375 -20.789062 15.234375 -18.992188 15.234375 -16.734375 L 15.234375 -7.140625 C 15.234375 -2.203125 12.851562 0.265625 8.09375 0.265625 Z M 8.09375 -4.140625 C 8.539062 -4.140625 8.875 -4.300781 9.09375 -4.625 C 9.3125 -4.957031 9.421875 -5.40625 9.421875 -5.96875 L 9.421875 -17.640625 C 9.421875 -19.035156 8.976562 -19.734375 8.09375 -19.734375 C 7.195312 -19.734375 6.75 -19.035156 6.75 -17.640625 L 6.75 -5.96875 C 6.75 -5.40625 6.859375 -4.957031 7.078125 -4.625 C 7.296875 -4.300781 7.632812 -4.140625 8.09375 -4.140625 Z M 8.09375 -4.140625" transform="translate(153.466 192.756)"/></g></g></g><g fill="#E6E6FF"><g><g><path d="M 1.140625 0 L 1.140625 -28.171875 L 6.953125 -28.171875 L 6.953125 0 Z M 1.140625 0" transform="translate(169.674 192.756)"/></g></g></g><g fill="#E6E6FF"><g><g><path d="M 5.734375 0.265625 C 3.953125 0.265625 2.726562 -0.265625 2.0625 -1.328125 C 1.40625 -2.398438 1.078125 -3.988281 1.078125 -6.09375 L 1.078125 -23.875 L 6.8125 -23.875 L 6.8125 -7.234375 C 6.8125 -7.085938 6.8125 -6.679688 6.8125 -6.015625 C 6.8125 -5.347656 6.914062 -4.878906 7.125 -4.609375 C 7.332031 -4.335938 7.65625 -4.203125 8.09375 -4.203125 C 8.675781 -4.203125 9.039062 -4.445312 9.1875 -4.9375 C 9.34375 -5.425781 9.421875 -6.128906 9.421875 -7.046875 L 9.421875 -7.234375 L 9.453125 -23.875 L 15.125 -23.875 L 15.125 0 L 9.421875 0 L 9.421875 -2.546875 C 9.035156 -1.546875 8.578125 -0.828125 8.046875 -0.390625 C 7.523438 0.046875 6.753906 0.265625 5.734375 0.265625 Z M 5.734375 0.265625" transform="translate(177.762 192.756)"/></g></g></g><g fill="#E6E6FF"><g><g><path d="M 6.0625 0.265625 C 4.5625 0.265625 3.53125 -0.046875 2.96875 -0.671875 C 2.40625 -1.304688 2.125 -2.320312 2.125 -3.71875 L 2.125 -18.625 L 0.515625 -18.625 L 0.515625 -22.953125 L 2.125 -22.953125 L 2.125 -28.015625 L 7.65625 -28.015625 L 7.65625 -22.953125 L 9.296875 -22.953125 L 9.296875 -18.625 L 7.65625 -18.625 L 7.65625 -5.21875 C 7.65625 -4.800781 7.6875 -4.492188 7.75 -4.296875 C 7.820312 -4.109375 8 -4.015625 8.28125 -4.015625 C 8.5 -4.015625 8.707031 -4.023438 8.90625 -4.046875 C 9.101562 -4.066406 9.234375 -4.078125 9.296875 -4.078125 L 9.296875 -0.15625 C 8.960938 -0.0703125 8.488281 0.015625 7.875 0.109375 C 7.257812 0.210938 6.65625 0.265625 6.0625 0.265625 Z M 6.0625 0.265625" transform="translate(194.036 192.756)"/></g></g></g><g fill="#E6E6FF"><g><g><path d="M 1.109375 -25.46875 L 1.109375 -29.453125 L 6.8125 -29.453125 L 6.8125 -25.46875 Z M 1.109375 0 L 1.109375 -23.875 L 6.8125 -23.875 L 6.8125 0 Z M 1.109375 0" transform="translate(203.983 192.756)"/></g></g></g><g fill="#E6E6FF"><g><g><path d="M 8.09375 0.265625 C 3.332031 0.265625 0.953125 -2.203125 0.953125 -7.140625 L 0.953125 -16.734375 C 0.953125 -18.992188 1.585938 -20.789062 2.859375 -22.125 C 4.128906 -23.457031 5.875 -24.125 8.09375 -24.125 C 10.300781 -24.125 12.039062 -23.457031 13.3125 -22.125 C 14.59375 -20.789062 15.234375 -18.992188 15.234375 -16.734375 L 15.234375 -7.140625 C 15.234375 -2.203125 12.851562 0.265625 8.09375 0.265625 Z M 8.09375 -4.140625 C 8.539062 -4.140625 8.875 -4.300781 9.09375 -4.625 C 9.3125 -4.957031 9.421875 -5.40625 9.421875 -5.96875 L 9.421875 -17.640625 C 9.421875 -19.035156 8.976562 -19.734375 8.09375 -19.734375 C 7.195312 -19.734375 6.75 -19.035156 6.75 -17.640625 L 6.75 -5.96875 C 6.75 -5.40625 6.859375 -4.957031 7.078125 -4.625 C 7.296875 -4.300781 7.632812 -4.140625 8.09375 -4.140625 Z M 8.09375 -4.140625" transform="translate(211.908 192.756)"/></g></g></g><g fill="#E6E6FF"><g><g><path d="M 1.140625 -23.875 L 6.84375 -23.875 L 6.84375 -20.84375 C 7.082031 -21.820312 7.492188 -22.613281 8.078125 -23.21875 C 8.671875 -23.820312 9.457031 -24.125 10.4375 -24.125 C 12.039062 -24.125 13.226562 -23.628906 14 -22.640625 C 14.769531 -21.648438 15.15625 -20.242188 15.15625 -18.421875 L 15.15625 0 L 9.546875 0 L 9.546875 -17.84375 C 9.546875 -18.363281 9.441406 -18.804688 9.234375 -19.171875 C 9.035156 -19.546875 8.71875 -19.734375 8.28125 -19.734375 C 7.695312 -19.734375 7.3125 -19.460938 7.125 -18.921875 C 6.9375 -18.390625 6.84375 -17.679688 6.84375 -16.796875 L 6.84375 0 L 1.140625 0 Z M 1.140625 -23.875" transform="translate(228.116 192.756)"/></g></g></g><g fill="#E6E6FF"><g><g><path d="M 7.703125 0.265625 C 2.984375 0.265625 0.625 -2.125 0.625 -6.90625 L 0.65625 -8.796875 L 6.359375 -8.796875 L 6.390625 -6 C 6.390625 -5.4375 6.5 -5.003906 6.71875 -4.703125 C 6.9375 -4.410156 7.296875 -4.265625 7.796875 -4.265625 C 8.554688 -4.265625 8.9375 -4.882812 8.9375 -6.125 C 8.9375 -7.039062 8.753906 -7.757812 8.390625 -8.28125 C 8.035156 -8.800781 7.46875 -9.359375 6.6875 -9.953125 L 3.65625 -12.296875 C 2.613281 -13.097656 1.863281 -13.925781 1.40625 -14.78125 C 0.945312 -15.644531 0.71875 -16.859375 0.71875 -18.421875 C 0.71875 -19.640625 1.035156 -20.675781 1.671875 -21.53125 C 2.316406 -22.394531 3.171875 -23.039062 4.234375 -23.46875 C 5.304688 -23.90625 6.492188 -24.125 7.796875 -24.125 C 12.421875 -24.125 14.734375 -21.820312 14.734375 -17.21875 L 14.734375 -16.765625 L 8.84375 -16.765625 L 8.84375 -17.671875 C 8.84375 -18.234375 8.75 -18.71875 8.5625 -19.125 C 8.375 -19.53125 8.0625 -19.734375 7.625 -19.734375 C 7.238281 -19.734375 6.941406 -19.617188 6.734375 -19.390625 C 6.523438 -19.160156 6.421875 -18.847656 6.421875 -18.453125 C 6.421875 -17.585938 6.757812 -16.914062 7.4375 -16.4375 L 10.953125 -13.859375 C 12.210938 -12.921875 13.179688 -11.898438 13.859375 -10.796875 C 14.535156 -9.703125 14.875 -8.320312 14.875 -6.65625 C 14.875 -4.4375 14.242188 -2.726562 12.984375 -1.53125 C 11.722656 -0.332031 9.960938 0.265625 7.703125 0.265625 Z M 7.703125 0.265625" transform="translate(244.39 192.756)"/></g></g></g><g fill="#E6E6FF"><g><g><path d="M 3.1875 0 L 2.625 0 L 2.625 -7.390625 L 0.046875 -7.390625 L 0.046875 -7.90625 L 5.75 -7.90625 L 5.75 -7.390625 L 3.1875 -7.390625 Z M 3.1875 0" transform="translate(42.265 206.195)"/></g></g></g><g fill="#E6E6FF"><g><g><path d="M 5.078125 0 L 5.078125 -3.8125 C 5.078125 -4.40625 4.953125 -4.832031 4.703125 -5.09375 C 4.460938 -5.363281 4.078125 -5.5 3.546875 -5.5 C 2.847656 -5.5 2.332031 -5.320312 2 -4.96875 C 1.675781 -4.613281 1.515625 -4.039062 1.515625 -3.25 L 1.515625 0 L 0.984375 0 L 0.984375 -8.421875 L 1.515625 -8.421875 L 1.515625 -5.734375 L 1.5 -4.984375 L 1.53125 -4.984375 C 1.75 -5.335938 2.023438 -5.59375 2.359375 -5.75 C 2.691406 -5.914062 3.109375 -6 3.609375 -6 C 4.941406 -6 5.609375 -5.28125 5.609375 -3.84375 L 5.609375 0 Z M 5.078125 0" transform="translate(48.07 206.195)"/></g></g></g><g fill="#E6E6FF"><g><g><path d="M 3.359375 0.109375 C 2.503906 0.109375 1.835938 -0.148438 1.359375 -0.671875 C 0.878906 -1.203125 0.640625 -1.941406 0.640625 -2.890625 C 0.640625 -3.828125 0.867188 -4.578125 1.328125 -5.140625 C 1.796875 -5.710938 2.421875 -6 3.203125 -6 C 3.890625 -6 4.429688 -5.753906 4.828125 -5.265625 C 5.234375 -4.785156 5.4375 -4.128906 5.4375 -3.296875 L 5.4375 -2.859375 L 1.203125 -2.859375 C 1.210938 -2.054688 1.398438 -1.441406 1.765625 -1.015625 C 2.140625 -0.585938 2.671875 -0.375 3.359375 -0.375 C 3.691406 -0.375 3.984375 -0.394531 4.234375 -0.4375 C 4.492188 -0.488281 4.816406 -0.59375 5.203125 -0.75 L 5.203125 -0.265625 C 4.878906 -0.117188 4.578125 -0.0195312 4.296875 0.03125 C 4.015625 0.0820312 3.703125 0.109375 3.359375 0.109375 Z M 3.203125 -5.515625 C 2.640625 -5.515625 2.1875 -5.328125 1.84375 -4.953125 C 1.5 -4.578125 1.296875 -4.039062 1.234375 -3.34375 L 4.875 -3.34375 C 4.875 -4.019531 4.722656 -4.550781 4.421875 -4.9375 C 4.128906 -5.320312 3.722656 -5.515625 3.203125 -5.515625 Z M 3.203125 -5.515625" transform="translate(54.605 206.195)"/></g></g></g><g fill="#E6E6FF"><g><g><path d="M 4.625 -1.53125 C 4.625 -1 4.421875 -0.59375 4.015625 -0.3125 C 3.617188 -0.03125 3.054688 0.109375 2.328125 0.109375 C 1.535156 0.109375 0.910156 -0.0078125 0.453125 -0.25 L 0.453125 -0.828125 C 1.046875 -0.535156 1.671875 -0.390625 2.328125 -0.390625 C 2.910156 -0.390625 3.347656 -0.484375 3.640625 -0.671875 C 3.941406 -0.867188 4.09375 -1.128906 4.09375 -1.453125 C 4.09375 -1.742188 3.972656 -1.988281 3.734375 -2.1875 C 3.492188 -2.394531 3.101562 -2.597656 2.5625 -2.796875 C 1.96875 -3.003906 1.550781 -3.179688 1.3125 -3.328125 C 1.082031 -3.484375 0.90625 -3.660156 0.78125 -3.859375 C 0.65625 -4.054688 0.59375 -4.289062 0.59375 -4.5625 C 0.59375 -5 0.773438 -5.347656 1.140625 -5.609375 C 1.515625 -5.867188 2.035156 -6 2.703125 -6 C 3.335938 -6 3.941406 -5.878906 4.515625 -5.640625 L 4.3125 -5.15625 C 3.738281 -5.382812 3.203125 -5.5 2.703125 -5.5 C 2.222656 -5.5 1.84375 -5.421875 1.5625 -5.265625 C 1.28125 -5.109375 1.140625 -4.890625 1.140625 -4.609375 C 1.140625 -4.304688 1.25 -4.0625 1.46875 -3.875 C 1.6875 -3.6875 2.113281 -3.476562 2.75 -3.25 C 3.28125 -3.0625 3.664062 -2.890625 3.90625 -2.734375 C 4.144531 -2.585938 4.320312 -2.414062 4.4375 -2.21875 C 4.5625 -2.019531 4.625 -1.789062 4.625 -1.53125 Z M 4.625 -1.53125" transform="translate(63.564 206.195)"/></g></g></g><g fill="#E6E6FF"><g><g><path d="M 5.84375 -2.953125 C 5.84375 -1.992188 5.609375 -1.242188 5.140625 -0.703125 C 4.679688 -0.160156 4.039062 0.109375 3.21875 0.109375 C 2.707031 0.109375 2.253906 -0.015625 1.859375 -0.265625 C 1.460938 -0.515625 1.160156 -0.867188 0.953125 -1.328125 C 0.742188 -1.796875 0.640625 -2.335938 0.640625 -2.953125 C 0.640625 -3.910156 0.875 -4.65625 1.34375 -5.1875 C 1.8125 -5.726562 2.445312 -6 3.25 -6 C 4.0625 -6 4.695312 -5.722656 5.15625 -5.171875 C 5.613281 -4.628906 5.84375 -3.890625 5.84375 -2.953125 Z M 1.203125 -2.953125 C 1.203125 -2.140625 1.378906 -1.503906 1.734375 -1.046875 C 2.085938 -0.597656 2.59375 -0.375 3.25 -0.375 C 3.894531 -0.375 4.394531 -0.597656 4.75 -1.046875 C 5.101562 -1.503906 5.28125 -2.140625 5.28125 -2.953125 C 5.28125 -3.765625 5.097656 -4.390625 4.734375 -4.828125 C 4.378906 -5.273438 3.878906 -5.5 3.234375 -5.5 C 2.585938 -5.5 2.085938 -5.273438 1.734375 -4.828125 C 1.378906 -4.390625 1.203125 -3.765625 1.203125 -2.953125 Z M 1.203125 -2.953125" transform="translate(68.725 206.195)"/></g></g></g><g fill="#E6E6FF"><g><g><path d="M 1.515625 0 L 0.984375 0 L 0.984375 -8.421875 L 1.515625 -8.421875 Z M 1.515625 0" transform="translate(75.217 206.195)"/></g></g></g><g fill="#E6E6FF"><g><g><path d="M 1.453125 -5.875 L 1.453125 -2.078125 C 1.453125 -1.484375 1.578125 -1.050781 1.828125 -0.78125 C 2.078125 -0.507812 2.460938 -0.375 2.984375 -0.375 C 3.679688 -0.375 4.191406 -0.550781 4.515625 -0.90625 C 4.847656 -1.257812 5.015625 -1.835938 5.015625 -2.640625 L 5.015625 -5.875 L 5.546875 -5.875 L 5.546875 0 L 5.09375 0 L 5 -0.8125 L 4.96875 -0.8125 C 4.582031 -0.195312 3.898438 0.109375 2.921875 0.109375 C 1.585938 0.109375 0.921875 -0.609375 0.921875 -2.046875 L 0.921875 -5.875 Z M 1.453125 -5.875" transform="translate(77.721 206.195)"/></g></g></g><g fill="#E6E6FF"><g><g><path d="M 2.53125 -0.375 C 2.875 -0.375 3.171875 -0.398438 3.421875 -0.453125 L 3.421875 -0.015625 C 3.160156 0.0664062 2.863281 0.109375 2.53125 0.109375 C 2.007812 0.109375 1.625 -0.0234375 1.375 -0.296875 C 1.125 -0.578125 1 -1.019531 1 -1.625 L 1 -5.421875 L 0.140625 -5.421875 L 0.140625 -5.734375 L 1 -5.96875 L 1.28125 -7.296875 L 1.546875 -7.296875 L 1.546875 -5.875 L 3.28125 -5.875 L 3.28125 -5.421875 L 1.546875 -5.421875 L 1.546875 -1.6875 C 1.546875 -1.238281 1.625 -0.90625 1.78125 -0.6875 C 1.945312 -0.476562 2.195312 -0.375 2.53125 -0.375 Z M 2.53125 -0.375" transform="translate(84.256 206.195)"/></g></g></g><g fill="#E6E6FF"><g><g><path d="M 1.515625 0 L 0.984375 0 L 0.984375 -5.875 L 1.515625 -5.875 Z M 0.90625 -7.515625 C 0.90625 -7.859375 1.019531 -8.03125 1.25 -8.03125 C 1.363281 -8.03125 1.453125 -7.984375 1.515625 -7.890625 C 1.578125 -7.804688 1.609375 -7.679688 1.609375 -7.515625 C 1.609375 -7.347656 1.578125 -7.21875 1.515625 -7.125 C 1.453125 -7.03125 1.363281 -6.984375 1.25 -6.984375 C 1.019531 -6.984375 0.90625 -7.160156 0.90625 -7.515625 Z M 0.90625 -7.515625" transform="translate(87.968 206.195)"/></g></g></g><g fill="#E6E6FF"><g><g><path d="M 5.84375 -2.953125 C 5.84375 -1.992188 5.609375 -1.242188 5.140625 -0.703125 C 4.679688 -0.160156 4.039062 0.109375 3.21875 0.109375 C 2.707031 0.109375 2.253906 -0.015625 1.859375 -0.265625 C 1.460938 -0.515625 1.160156 -0.867188 0.953125 -1.328125 C 0.742188 -1.796875 0.640625 -2.335938 0.640625 -2.953125 C 0.640625 -3.910156 0.875 -4.65625 1.34375 -5.1875 C 1.8125 -5.726562 2.445312 -6 3.25 -6 C 4.0625 -6 4.695312 -5.722656 5.15625 -5.171875 C 5.613281 -4.628906 5.84375 -3.890625 5.84375 -2.953125 Z M 1.203125 -2.953125 C 1.203125 -2.140625 1.378906 -1.503906 1.734375 -1.046875 C 2.085938 -0.597656 2.59375 -0.375 3.25 -0.375 C 3.894531 -0.375 4.394531 -0.597656 4.75 -1.046875 C 5.101562 -1.503906 5.28125 -2.140625 5.28125 -2.953125 C 5.28125 -3.765625 5.097656 -4.390625 4.734375 -4.828125 C 4.378906 -5.273438 3.878906 -5.5 3.234375 -5.5 C 2.585938 -5.5 2.085938 -5.273438 1.734375 -4.828125 C 1.378906 -4.390625 1.203125 -3.765625 1.203125 -2.953125 Z M 1.203125 -2.953125" transform="translate(90.472 206.195)"/></g></g></g><g fill="#E6E6FF"><g><g><path d="M 5.078125 0 L 5.078125 -3.8125 C 5.078125 -4.40625 4.953125 -4.832031 4.703125 -5.09375 C 4.460938 -5.363281 4.078125 -5.5 3.546875 -5.5 C 2.847656 -5.5 2.332031 -5.320312 2 -4.96875 C 1.675781 -4.613281 1.515625 -4.039062 1.515625 -3.25 L 1.515625 0 L 0.984375 0 L 0.984375 -5.875 L 1.4375 -5.875 L 1.546875 -5.078125 L 1.578125 -5.078125 C 1.953125 -5.691406 2.628906 -6 3.609375 -6 C 4.941406 -6 5.609375 -5.28125 5.609375 -3.84375 L 5.609375 0 Z M 5.078125 0" transform="translate(96.964 206.195)"/></g></g></g><g fill="#E6E6FF"><g><g><path d="M 2.53125 -0.375 C 2.875 -0.375 3.171875 -0.398438 3.421875 -0.453125 L 3.421875 -0.015625 C 3.160156 0.0664062 2.863281 0.109375 2.53125 0.109375 C 2.007812 0.109375 1.625 -0.0234375 1.375 -0.296875 C 1.125 -0.578125 1 -1.019531 1 -1.625 L 1 -5.421875 L 0.140625 -5.421875 L 0.140625 -5.734375 L 1 -5.96875 L 1.28125 -7.296875 L 1.546875 -7.296875 L 1.546875 -5.875 L 3.28125 -5.875 L 3.28125 -5.421875 L 1.546875 -5.421875 L 1.546875 -1.6875 C 1.546875 -1.238281 1.625 -0.90625 1.78125 -0.6875 C 1.945312 -0.476562 2.195312 -0.375 2.53125 -0.375 Z M 2.53125 -0.375" transform="translate(106.377 206.195)"/></g></g></g><g fill="#E6E6FF"><g><g><path d="M 5.84375 -2.953125 C 5.84375 -1.992188 5.609375 -1.242188 5.140625 -0.703125 C 4.679688 -0.160156 4.039062 0.109375 3.21875 0.109375 C 2.707031 0.109375 2.253906 -0.015625 1.859375 -0.265625 C 1.460938 -0.515625 1.160156 -0.867188 0.953125 -1.328125 C 0.742188 -1.796875 0.640625 -2.335938 0.640625 -2.953125 C 0.640625 -3.910156 0.875 -4.65625 1.34375 -5.1875 C 1.8125 -5.726562 2.445312 -6 3.25 -6 C 4.0625 -6 4.695312 -5.722656 5.15625 -5.171875 C 5.613281 -4.628906 5.84375 -3.890625 5.84375 -2.953125 Z M 1.203125 -2.953125 C 1.203125 -2.140625 1.378906 -1.503906 1.734375 -1.046875 C 2.085938 -0.597656 2.59375 -0.375 3.25 -0.375 C 3.894531 -0.375 4.394531 -0.597656 4.75 -1.046875 C 5.101562 -1.503906 5.28125 -2.140625 5.28125 -2.953125 C 5.28125 -3.765625 5.097656 -4.390625 4.734375 -4.828125 C 4.378906 -5.273438 3.878906 -5.5 3.234375 -5.5 C 2.585938 -5.5 2.085938 -5.273438 1.734375 -4.828125 C 1.378906 -4.390625 1.203125 -3.765625 1.203125 -2.953125 Z M 1.203125 -2.953125" transform="translate(110.089 206.195)"/></g></g></g><g fill="#E6E6FF"><g><g><path d="M 2.53125 -0.375 C 2.875 -0.375 3.171875 -0.398438 3.421875 -0.453125 L 3.421875 -0.015625 C 3.160156 0.0664062 2.863281 0.109375 2.53125 0.109375 C 2.007812 0.109375 1.625 -0.0234375 1.375 -0.296875 C 1.125 -0.578125 1 -1.019531 1 -1.625 L 1 -5.421875 L 0.140625 -5.421875 L 0.140625 -5.734375 L 1 -5.96875 L 1.28125 -7.296875 L 1.546875 -7.296875 L 1.546875 -5.875 L 3.28125 -5.875 L 3.28125 -5.421875 L 1.546875 -5.421875 L 1.546875 -1.6875 C 1.546875 -1.238281 1.625 -0.90625 1.78125 -0.6875 C 1.945312 -0.476562 2.195312 -0.375 2.53125 -0.375 Z M 2.53125 -0.375" transform="translate(119.459 206.195)"/></g></g></g><g fill="#E6E6FF"><g><g><path d="M 1.453125 -5.875 L 1.453125 -2.078125 C 1.453125 -1.484375 1.578125 -1.050781 1.828125 -0.78125 C 2.078125 -0.507812 2.460938 -0.375 2.984375 -0.375 C 3.679688 -0.375 4.191406 -0.550781 4.515625 -0.90625 C 4.847656 -1.257812 5.015625 -1.835938 5.015625 -2.640625 L 5.015625 -5.875 L 5.546875 -5.875 L 5.546875 0 L 5.09375 0 L 5 -0.8125 L 4.96875 -0.8125 C 4.582031 -0.195312 3.898438 0.109375 2.921875 0.109375 C 1.585938 0.109375 0.921875 -0.609375 0.921875 -2.046875 L 0.921875 -5.875 Z M 1.453125 -5.875" transform="translate(123.17 206.195)"/></g></g></g><g fill="#E6E6FF"><g><g><path d="M 3.296875 -6 C 3.546875 -6 3.8125 -5.972656 4.09375 -5.921875 L 4 -5.40625 C 3.75 -5.46875 3.492188 -5.5 3.234375 -5.5 C 2.734375 -5.5 2.320312 -5.285156 2 -4.859375 C 1.675781 -4.429688 1.515625 -3.894531 1.515625 -3.25 L 1.515625 0 L 0.984375 0 L 0.984375 -5.875 L 1.4375 -5.875 L 1.5 -4.8125 L 1.53125 -4.8125 C 1.769531 -5.25 2.023438 -5.554688 2.296875 -5.734375 C 2.578125 -5.910156 2.910156 -6 3.296875 -6 Z M 3.296875 -6" transform="translate(129.705 206.195)"/></g></g></g><g fill="#E6E6FF"><g><g><path d="M 5.078125 0 L 5.078125 -3.8125 C 5.078125 -4.40625 4.953125 -4.832031 4.703125 -5.09375 C 4.460938 -5.363281 4.078125 -5.5 3.546875 -5.5 C 2.847656 -5.5 2.332031 -5.320312 2 -4.96875 C 1.675781 -4.613281 1.515625 -4.039062 1.515625 -3.25 L 1.515625 0 L 0.984375 0 L 0.984375 -5.875 L 1.4375 -5.875 L 1.546875 -5.078125 L 1.578125 -5.078125 C 1.953125 -5.691406 2.628906 -6 3.609375 -6 C 4.941406 -6 5.609375 -5.28125 5.609375 -3.84375 L 5.609375 0 Z M 5.078125 0" transform="translate(134.016 206.195)"/></g></g></g><g fill="#E6E6FF"><g><g><path d="M 0 -5.875 L 0.546875 -5.875 L 1.796875 -2.578125 C 2.171875 -1.566406 2.410156 -0.882812 2.515625 -0.53125 L 2.546875 -0.53125 C 2.703125 -1 2.945312 -1.691406 3.28125 -2.609375 L 4.53125 -5.875 L 5.078125 -5.875 L 2.453125 0.953125 C 2.234375 1.503906 2.050781 1.878906 1.90625 2.078125 C 1.769531 2.273438 1.601562 2.421875 1.40625 2.515625 C 1.21875 2.609375 0.984375 2.65625 0.703125 2.65625 C 0.503906 2.65625 0.273438 2.617188 0.015625 2.546875 L 0.015625 2.078125 C 0.222656 2.140625 0.453125 2.171875 0.703125 2.171875 C 0.878906 2.171875 1.035156 2.125 1.171875 2.03125 C 1.316406 1.945312 1.445312 1.8125 1.5625 1.625 C 1.675781 1.445312 1.804688 1.160156 1.953125 0.765625 C 2.109375 0.367188 2.207031 0.113281 2.25 0 Z M 0 -5.875" transform="translate(143.43 206.195)"/></g></g></g><g fill="#E6E6FF"><g><g><path d="M 5.84375 -2.953125 C 5.84375 -1.992188 5.609375 -1.242188 5.140625 -0.703125 C 4.679688 -0.160156 4.039062 0.109375 3.21875 0.109375 C 2.707031 0.109375 2.253906 -0.015625 1.859375 -0.265625 C 1.460938 -0.515625 1.160156 -0.867188 0.953125 -1.328125 C 0.742188 -1.796875 0.640625 -2.335938 0.640625 -2.953125 C 0.640625 -3.910156 0.875 -4.65625 1.34375 -5.1875 C 1.8125 -5.726562 2.445312 -6 3.25 -6 C 4.0625 -6 4.695312 -5.722656 5.15625 -5.171875 C 5.613281 -4.628906 5.84375 -3.890625 5.84375 -2.953125 Z M 1.203125 -2.953125 C 1.203125 -2.140625 1.378906 -1.503906 1.734375 -1.046875 C 2.085938 -0.597656 2.59375 -0.375 3.25 -0.375 C 3.894531 -0.375 4.394531 -0.597656 4.75 -1.046875 C 5.101562 -1.503906 5.28125 -2.140625 5.28125 -2.953125 C 5.28125 -3.765625 5.097656 -4.390625 4.734375 -4.828125 C 4.378906 -5.273438 3.878906 -5.5 3.234375 -5.5 C 2.585938 -5.5 2.085938 -5.273438 1.734375 -4.828125 C 1.378906 -4.390625 1.203125 -3.765625 1.203125 -2.953125 Z M 1.203125 -2.953125" transform="translate(148.515 206.195)"/></g></g></g><g fill="#E6E6FF"><g><g><path d="M 1.453125 -5.875 L 1.453125 -2.078125 C 1.453125 -1.484375 1.578125 -1.050781 1.828125 -0.78125 C 2.078125 -0.507812 2.460938 -0.375 2.984375 -0.375 C 3.679688 -0.375 4.191406 -0.550781 4.515625 -0.90625 C 4.847656 -1.257812 5.015625 -1.835938 5.015625 -2.640625 L 5.015625 -5.875 L 5.546875 -5.875 L 5.546875 0 L 5.09375 0 L 5 -0.8125 L 4.96875 -0.8125 C 4.582031 -0.195312 3.898438 0.109375 2.921875 0.109375 C 1.585938 0.109375 0.921875 -0.609375 0.921875 -2.046875 L 0.921875 -5.875 Z M 1.453125 -5.875" transform="translate(155.007 206.195)"/></g></g></g><g fill="#E6E6FF"><g><g><path d="M 3.296875 -6 C 3.546875 -6 3.8125 -5.972656 4.09375 -5.921875 L 4 -5.40625 C 3.75 -5.46875 3.492188 -5.5 3.234375 -5.5 C 2.734375 -5.5 2.320312 -5.285156 2 -4.859375 C 1.675781 -4.429688 1.515625 -3.894531 1.515625 -3.25 L 1.515625 0 L 0.984375 0 L 0.984375 -5.875 L 1.4375 -5.875 L 1.5 -4.8125 L 1.53125 -4.8125 C 1.769531 -5.25 2.023438 -5.554688 2.296875 -5.734375 C 2.578125 -5.910156 2.910156 -6 3.296875 -6 Z M 3.296875 -6" transform="translate(161.542 206.195)"/></g></g></g><g fill="#E6E6FF"><g><g><path d="M 2.265625 0 L 0 -5.875 L 0.546875 -5.875 L 2.078125 -1.875 C 2.273438 -1.363281 2.425781 -0.921875 2.53125 -0.546875 L 2.5625 -0.546875 C 2.707031 -1.035156 2.859375 -1.484375 3.015625 -1.890625 L 4.53125 -5.875 L 5.078125 -5.875 L 2.8125 0 Z M 2.265625 0" transform="translate(168.732 206.195)"/></g></g></g><g fill="#E6E6FF"><g><g><path d="M 1.515625 0 L 0.984375 0 L 0.984375 -5.875 L 1.515625 -5.875 Z M 0.90625 -7.515625 C 0.90625 -7.859375 1.019531 -8.03125 1.25 -8.03125 C 1.363281 -8.03125 1.453125 -7.984375 1.515625 -7.890625 C 1.578125 -7.804688 1.609375 -7.679688 1.609375 -7.515625 C 1.609375 -7.347656 1.578125 -7.21875 1.515625 -7.125 C 1.453125 -7.03125 1.363281 -6.984375 1.25 -6.984375 C 1.019531 -6.984375 0.90625 -7.160156 0.90625 -7.515625 Z M 0.90625 -7.515625" transform="translate(173.817 206.195)"/></g></g></g><g fill="#E6E6FF"><g><g><path d="M 4.625 -1.53125 C 4.625 -1 4.421875 -0.59375 4.015625 -0.3125 C 3.617188 -0.03125 3.054688 0.109375 2.328125 0.109375 C 1.535156 0.109375 0.910156 -0.0078125 0.453125 -0.25 L 0.453125 -0.828125 C 1.046875 -0.535156 1.671875 -0.390625 2.328125 -0.390625 C 2.910156 -0.390625 3.347656 -0.484375 3.640625 -0.671875 C 3.941406 -0.867188 4.09375 -1.128906 4.09375 -1.453125 C 4.09375 -1.742188 3.972656 -1.988281 3.734375 -2.1875 C 3.492188 -2.394531 3.101562 -2.597656 2.5625 -2.796875 C 1.96875 -3.003906 1.550781 -3.179688 1.3125 -3.328125 C 1.082031 -3.484375 0.90625 -3.660156 0.78125 -3.859375 C 0.65625 -4.054688 0.59375 -4.289062 0.59375 -4.5625 C 0.59375 -5 0.773438 -5.347656 1.140625 -5.609375 C 1.515625 -5.867188 2.035156 -6 2.703125 -6 C 3.335938 -6 3.941406 -5.878906 4.515625 -5.640625 L 4.3125 -5.15625 C 3.738281 -5.382812 3.203125 -5.5 2.703125 -5.5 C 2.222656 -5.5 1.84375 -5.421875 1.5625 -5.265625 C 1.28125 -5.109375 1.140625 -4.890625 1.140625 -4.609375 C 1.140625 -4.304688 1.25 -4.0625 1.46875 -3.875 C 1.6875 -3.6875 2.113281 -3.476562 2.75 -3.25 C 3.28125 -3.0625 3.664062 -2.890625 3.90625 -2.734375 C 4.144531 -2.585938 4.320312 -2.414062 4.4375 -2.21875 C 4.5625 -2.019531 4.625 -1.789062 4.625 -1.53125 Z M 4.625 -1.53125" transform="translate(176.322 206.195)"/></g></g></g><g fill="#E6E6FF"><g><g><path d="M 1.515625 0 L 0.984375 0 L 0.984375 -5.875 L 1.515625 -5.875 Z M 0.90625 -7.515625 C 0.90625 -7.859375 1.019531 -8.03125 1.25 -8.03125 C 1.363281 -8.03125 1.453125 -7.984375 1.515625 -7.890625 C 1.578125 -7.804688 1.609375 -7.679688 1.609375 -7.515625 C 1.609375 -7.347656 1.578125 -7.21875 1.515625 -7.125 C 1.453125 -7.03125 1.363281 -6.984375 1.25 -6.984375 C 1.019531 -6.984375 0.90625 -7.160156 0.90625 -7.515625 Z M 0.90625 -7.515625" transform="translate(181.483 206.195)"/></g></g></g><g fill="#E6E6FF"><g><g><path d="M 5.84375 -2.953125 C 5.84375 -1.992188 5.609375 -1.242188 5.140625 -0.703125 C 4.679688 -0.160156 4.039062 0.109375 3.21875 0.109375 C 2.707031 0.109375 2.253906 -0.015625 1.859375 -0.265625 C 1.460938 -0.515625 1.160156 -0.867188 0.953125 -1.328125 C 0.742188 -1.796875 0.640625 -2.335938 0.640625 -2.953125 C 0.640625 -3.910156 0.875 -4.65625 1.34375 -5.1875 C 1.8125 -5.726562 2.445312 -6 3.25 -6 C 4.0625 -6 4.695312 -5.722656 5.15625 -5.171875 C 5.613281 -4.628906 5.84375 -3.890625 5.84375 -2.953125 Z M 1.203125 -2.953125 C 1.203125 -2.140625 1.378906 -1.503906 1.734375 -1.046875 C 2.085938 -0.597656 2.59375 -0.375 3.25 -0.375 C 3.894531 -0.375 4.394531 -0.597656 4.75 -1.046875 C 5.101562 -1.503906 5.28125 -2.140625 5.28125 -2.953125 C 5.28125 -3.765625 5.097656 -4.390625 4.734375 -4.828125 C 4.378906 -5.273438 3.878906 -5.5 3.234375 -5.5 C 2.585938 -5.5 2.085938 -5.273438 1.734375 -4.828125 C 1.378906 -4.390625 1.203125 -3.765625 1.203125 -2.953125 Z M 1.203125 -2.953125" transform="translate(183.987 206.195)"/></g></g></g><g fill="#E6E6FF"><g><g><path d="M 5.078125 0 L 5.078125 -3.8125 C 5.078125 -4.40625 4.953125 -4.832031 4.703125 -5.09375 C 4.460938 -5.363281 4.078125 -5.5 3.546875 -5.5 C 2.847656 -5.5 2.332031 -5.320312 2 -4.96875 C 1.675781 -4.613281 1.515625 -4.039062 1.515625 -3.25 L 1.515625 0 L 0.984375 0 L 0.984375 -5.875 L 1.4375 -5.875 L 1.546875 -5.078125 L 1.578125 -5.078125 C 1.953125 -5.691406 2.628906 -6 3.609375 -6 C 4.941406 -6 5.609375 -5.28125 5.609375 -3.84375 L 5.609375 0 Z M 5.078125 0" transform="translate(190.48 206.195)"/></g></g></g><g fill="#E6E6FF"><g><g><path d="M 4.625 -1.53125 C 4.625 -1 4.421875 -0.59375 4.015625 -0.3125 C 3.617188 -0.03125 3.054688 0.109375 2.328125 0.109375 C 1.535156 0.109375 0.910156 -0.0078125 0.453125 -0.25 L 0.453125 -0.828125 C 1.046875 -0.535156 1.671875 -0.390625 2.328125 -0.390625 C 2.910156 -0.390625 3.347656 -0.484375 3.640625 -0.671875 C 3.941406 -0.867188 4.09375 -1.128906 4.09375 -1.453125 C 4.09375 -1.742188 3.972656 -1.988281 3.734375 -2.1875 C 3.492188 -2.394531 3.101562 -2.597656 2.5625 -2.796875 C 1.96875 -3.003906 1.550781 -3.179688 1.3125 -3.328125 C 1.082031 -3.484375 0.90625 -3.660156 0.78125 -3.859375 C 0.65625 -4.054688 0.59375 -4.289062 0.59375 -4.5625 C 0.59375 -5 0.773438 -5.347656 1.140625 -5.609375 C 1.515625 -5.867188 2.035156 -6 2.703125 -6 C 3.335938 -6 3.941406 -5.878906 4.515625 -5.640625 L 4.3125 -5.15625 C 3.738281 -5.382812 3.203125 -5.5 2.703125 -5.5 C 2.222656 -5.5 1.84375 -5.421875 1.5625 -5.265625 C 1.28125 -5.109375 1.140625 -4.890625 1.140625 -4.609375 C 1.140625 -4.304688 1.25 -4.0625 1.46875 -3.875 C 1.6875 -3.6875 2.113281 -3.476562 2.75 -3.25 C 3.28125 -3.0625 3.664062 -2.890625 3.90625 -2.734375 C 4.144531 -2.585938 4.320312 -2.414062 4.4375 -2.21875 C 4.5625 -2.019531 4.625 -1.789062 4.625 -1.53125 Z M 4.625 -1.53125" transform="translate(197.014 206.195)"/></g></g></g><g fill="#E6E6FF"><g><g><path d="M 1.515625 0 L 0.984375 0 L 0.984375 -5.875 L 1.515625 -5.875 Z M 0.90625 -7.515625 C 0.90625 -7.859375 1.019531 -8.03125 1.25 -8.03125 C 1.363281 -8.03125 1.453125 -7.984375 1.515625 -7.890625 C 1.578125 -7.804688 1.609375 -7.679688 1.609375 -7.515625 C 1.609375 -7.347656 1.578125 -7.21875 1.515625 -7.125 C 1.453125 -7.03125 1.363281 -6.984375 1.25 -6.984375 C 1.019531 -6.984375 0.90625 -7.160156 0.90625 -7.515625 Z M 0.90625 -7.515625" transform="translate(205.054 206.195)"/></g></g></g><g fill="#E6E6FF"><g><g><path d="M 5.078125 0 L 5.078125 -3.8125 C 5.078125 -4.40625 4.953125 -4.832031 4.703125 -5.09375 C 4.460938 -5.363281 4.078125 -5.5 3.546875 -5.5 C 2.847656 -5.5 2.332031 -5.320312 2 -4.96875 C 1.675781 -4.613281 1.515625 -4.039062 1.515625 -3.25 L 1.515625 0 L 0.984375 0 L 0.984375 -5.875 L 1.4375 -5.875 L 1.546875 -5.078125 L 1.578125 -5.078125 C 1.953125 -5.691406 2.628906 -6 3.609375 -6 C 4.941406 -6 5.609375 -5.28125 5.609375 -3.84375 L 5.609375 0 Z M 5.078125 0" transform="translate(207.558 206.195)"/></g></g></g><g fill="#E6E6FF"><g><g><path d="M 2.53125 -0.375 C 2.875 -0.375 3.171875 -0.398438 3.421875 -0.453125 L 3.421875 -0.015625 C 3.160156 0.0664062 2.863281 0.109375 2.53125 0.109375 C 2.007812 0.109375 1.625 -0.0234375 1.375 -0.296875 C 1.125 -0.578125 1 -1.019531 1 -1.625 L 1 -5.421875 L 0.140625 -5.421875 L 0.140625 -5.734375 L 1 -5.96875 L 1.28125 -7.296875 L 1.546875 -7.296875 L 1.546875 -5.875 L 3.28125 -5.875 L 3.28125 -5.421875 L 1.546875 -5.421875 L 1.546875 -1.6875 C 1.546875 -1.238281 1.625 -0.90625 1.78125 -0.6875 C 1.945312 -0.476562 2.195312 -0.375 2.53125 -0.375 Z M 2.53125 -0.375" transform="translate(214.093 206.195)"/></g></g></g><g fill="#E6E6FF"><g><g><path d="M 5.84375 -2.953125 C 5.84375 -1.992188 5.609375 -1.242188 5.140625 -0.703125 C 4.679688 -0.160156 4.039062 0.109375 3.21875 0.109375 C 2.707031 0.109375 2.253906 -0.015625 1.859375 -0.265625 C 1.460938 -0.515625 1.160156 -0.867188 0.953125 -1.328125 C 0.742188 -1.796875 0.640625 -2.335938 0.640625 -2.953125 C 0.640625 -3.910156 0.875 -4.65625 1.34375 -5.1875 C 1.8125 -5.726562 2.445312 -6 3.25 -6 C 4.0625 -6 4.695312 -5.722656 5.15625 -5.171875 C 5.613281 -4.628906 5.84375 -3.890625 5.84375 -2.953125 Z M 1.203125 -2.953125 C 1.203125 -2.140625 1.378906 -1.503906 1.734375 -1.046875 C 2.085938 -0.597656 2.59375 -0.375 3.25 -0.375 C 3.894531 -0.375 4.394531 -0.597656 4.75 -1.046875 C 5.101562 -1.503906 5.28125 -2.140625 5.28125 -2.953125 C 5.28125 -3.765625 5.097656 -4.390625 4.734375 -4.828125 C 4.378906 -5.273438 3.878906 -5.5 3.234375 -5.5 C 2.585938 -5.5 2.085938 -5.273438 1.734375 -4.828125 C 1.378906 -4.390625 1.203125 -3.765625 1.203125 -2.953125 Z M 1.203125 -2.953125" transform="translate(217.805 206.195)"/></g></g></g><g fill="#E6E6FF"><g><g><path d="M 3.296875 -6 C 3.546875 -6 3.8125 -5.972656 4.09375 -5.921875 L 4 -5.40625 C 3.75 -5.46875 3.492188 -5.5 3.234375 -5.5 C 2.734375 -5.5 2.320312 -5.285156 2 -4.859375 C 1.675781 -4.429688 1.515625 -3.894531 1.515625 -3.25 L 1.515625 0 L 0.984375 0 L 0.984375 -5.875 L 1.4375 -5.875 L 1.5 -4.8125 L 1.53125 -4.8125 C 1.769531 -5.25 2.023438 -5.554688 2.296875 -5.734375 C 2.578125 -5.910156 2.910156 -6 3.296875 -6 Z M 3.296875 -6" transform="translate(227.174 206.195)"/></g></g></g><g fill="#E6E6FF"><g><g><path d="M 3.359375 0.109375 C 2.503906 0.109375 1.835938 -0.148438 1.359375 -0.671875 C 0.878906 -1.203125 0.640625 -1.941406 0.640625 -2.890625 C 0.640625 -3.828125 0.867188 -4.578125 1.328125 -5.140625 C 1.796875 -5.710938 2.421875 -6 3.203125 -6 C 3.890625 -6 4.429688 -5.753906 4.828125 -5.265625 C 5.234375 -4.785156 5.4375 -4.128906 5.4375 -3.296875 L 5.4375 -2.859375 L 1.203125 -2.859375 C 1.210938 -2.054688 1.398438 -1.441406 1.765625 -1.015625 C 2.140625 -0.585938 2.671875 -0.375 3.359375 -0.375 C 3.691406 -0.375 3.984375 -0.394531 4.234375 -0.4375 C 4.492188 -0.488281 4.816406 -0.59375 5.203125 -0.75 L 5.203125 -0.265625 C 4.878906 -0.117188 4.578125 -0.0195312 4.296875 0.03125 C 4.015625 0.0820312 3.703125 0.109375 3.359375 0.109375 Z M 3.203125 -5.515625 C 2.640625 -5.515625 2.1875 -5.328125 1.84375 -4.953125 C 1.5 -4.578125 1.296875 -4.039062 1.234375 -3.34375 L 4.875 -3.34375 C 4.875 -4.019531 4.722656 -4.550781 4.421875 -4.9375 C 4.128906 -5.320312 3.722656 -5.515625 3.203125 -5.515625 Z M 3.203125 -5.515625" transform="translate(231.486 206.195)"/></g></g></g><g fill="#E6E6FF"><g><g><path d="M 4.546875 0 L 4.421875 -0.9375 L 4.375 -0.9375 C 4.082031 -0.550781 3.78125 -0.28125 3.46875 -0.125 C 3.15625 0.03125 2.785156 0.109375 2.359375 0.109375 C 1.785156 0.109375 1.335938 -0.0351562 1.015625 -0.328125 C 0.691406 -0.628906 0.53125 -1.039062 0.53125 -1.5625 C 0.53125 -2.132812 0.769531 -2.578125 1.25 -2.890625 C 1.726562 -3.210938 2.421875 -3.382812 3.328125 -3.40625 L 4.4375 -3.4375 L 4.4375 -3.828125 C 4.4375 -4.378906 4.320312 -4.796875 4.09375 -5.078125 C 3.875 -5.367188 3.507812 -5.515625 3 -5.515625 C 2.457031 -5.515625 1.894531 -5.363281 1.3125 -5.0625 L 1.109375 -5.53125 C 1.753906 -5.832031 2.394531 -5.984375 3.03125 -5.984375 C 3.664062 -5.984375 4.144531 -5.8125 4.46875 -5.46875 C 4.789062 -5.132812 4.953125 -4.613281 4.953125 -3.90625 L 4.953125 0 Z M 2.390625 -0.375 C 3.015625 -0.375 3.507812 -0.550781 3.875 -0.90625 C 4.238281 -1.269531 4.421875 -1.769531 4.421875 -2.40625 L 4.421875 -2.984375 L 3.390625 -2.953125 C 2.566406 -2.910156 1.976562 -2.78125 1.625 -2.5625 C 1.269531 -2.34375 1.09375 -2.003906 1.09375 -1.546875 C 1.09375 -1.171875 1.207031 -0.878906 1.4375 -0.671875 C 1.664062 -0.472656 1.984375 -0.375 2.390625 -0.375 Z M 2.390625 -0.375" transform="translate(237.567 206.195)"/></g></g></g><g fill="#E6E6FF"><g><g><path d="M 1.515625 0 L 0.984375 0 L 0.984375 -8.421875 L 1.515625 -8.421875 Z M 1.515625 0" transform="translate(243.437 206.195)"/></g></g></g><g fill="#E6E6FF"><g><g><path d="M 1.515625 0 L 0.984375 0 L 0.984375 -5.875 L 1.515625 -5.875 Z M 0.90625 -7.515625 C 0.90625 -7.859375 1.019531 -8.03125 1.25 -8.03125 C 1.363281 -8.03125 1.453125 -7.984375 1.515625 -7.890625 C 1.578125 -7.804688 1.609375 -7.679688 1.609375 -7.515625 C 1.609375 -7.347656 1.578125 -7.21875 1.515625 -7.125 C 1.453125 -7.03125 1.363281 -6.984375 1.25 -6.984375 C 1.019531 -6.984375 0.90625 -7.160156 0.90625 -7.515625 Z M 0.90625 -7.515625" transform="translate(245.941 206.195)"/></g></g></g><g fill="#E6E6FF"><g><g><path d="M 2.53125 -0.375 C 2.875 -0.375 3.171875 -0.398438 3.421875 -0.453125 L 3.421875 -0.015625 C 3.160156 0.0664062 2.863281 0.109375 2.53125 0.109375 C 2.007812 0.109375 1.625 -0.0234375 1.375 -0.296875 C 1.125 -0.578125 1 -1.019531 1 -1.625 L 1 -5.421875 L 0.140625 -5.421875 L 0.140625 -5.734375 L 1 -5.96875 L 1.28125 -7.296875 L 1.546875 -7.296875 L 1.546875 -5.875 L 3.28125 -5.875 L 3.28125 -5.421875 L 1.546875 -5.421875 L 1.546875 -1.6875 C 1.546875 -1.238281 1.625 -0.90625 1.78125 -0.6875 C 1.945312 -0.476562 2.195312 -0.375 2.53125 -0.375 Z M 2.53125 -0.375" transform="translate(248.446 206.195)"/></g></g></g><g fill="#E6E6FF"><g><g><path d="M 0 -5.875 L 0.546875 -5.875 L 1.796875 -2.578125 C 2.171875 -1.566406 2.410156 -0.882812 2.515625 -0.53125 L 2.546875 -0.53125 C 2.703125 -1 2.945312 -1.691406 3.28125 -2.609375 L 4.53125 -5.875 L 5.078125 -5.875 L 2.453125 0.953125 C 2.234375 1.503906 2.050781 1.878906 1.90625 2.078125 C 1.769531 2.273438 1.601562 2.421875 1.40625 2.515625 C 1.21875 2.609375 0.984375 2.65625 0.703125 2.65625 C 0.503906 2.65625 0.273438 2.617188 0.015625 2.546875 L 0.015625 2.078125 C 0.222656 2.140625 0.453125 2.171875 0.703125 2.171875 C 0.878906 2.171875 1.035156 2.125 1.171875 2.03125 C 1.316406 1.945312 1.445312 1.8125 1.5625 1.625 C 1.675781 1.445312 1.804688 1.160156 1.953125 0.765625 C 2.109375 0.367188 2.207031 0.113281 2.25 0 Z M 0 -5.875" transform="translate(252.157 206.195)"/></g></g></g><g fill="#E6E6FF"><g><g><path d="M 0.875 -0.421875 C 0.875 -0.773438 1.019531 -0.953125 1.3125 -0.953125 C 1.601562 -0.953125 1.75 -0.773438 1.75 -0.421875 C 1.75 -0.0664062 1.601562 0.109375 1.3125 0.109375 C 1.019531 0.109375 0.875 -0.0664062 0.875 -0.421875 Z M 0.875 -0.421875" transform="translate(257.243 206.195)"/></g></g></g></svg>